Coordinates
version=1
nRows=60
nColumns=12
inDegrees=yes

Units are S.I. units (second, meters, Newtons, ...)
Angles are in degrees

endheader
time	SC_y	SC_z	SC_x	AC_y	AC_z	AC_x	GH_y	GH_z	GH_yy	EL_x	PS_y
       0.0              -12.96          5.095          69.12          65.31         0.9536          9.737         -126.5          39.74          108.9          115.4          73.57
  0.000761              -12.96          5.095          69.11          65.31         0.9506          9.735         -126.5          39.74          108.9          115.4          73.56
  0.001522              -12.97          5.095          69.11          65.31         0.9475          9.732         -126.5          39.74          108.9          115.4          73.55
  0.002283              -12.97          5.095           69.1           65.3         0.9441           9.73         -126.5          39.75          108.9          115.3          73.54
  0.003044              -12.98          5.095           69.1           65.3         0.9406          9.727         -126.5          39.75          108.8          115.3          73.53
  0.003805              -12.98          5.095          69.09          65.29         0.9368          9.724         -126.5          39.76          108.8          115.3          73.52
  0.004566              -12.99          5.095          69.08          65.29         0.9327          9.721         -126.5          39.76          108.8          115.3           73.5
  0.005327              -12.99          5.095          69.07          65.28         0.9284          9.717         -126.5          39.77          108.8          115.3          73.49
  0.006088               -13.0          5.095          69.07          65.28         0.9237          9.714         -126.5          39.77          108.7          115.2          73.48
  0.006849              -13.01          5.095          69.06          65.27         0.9187           9.71         -126.5          39.78          108.7          115.2          73.46
   0.00761              -13.02          5.095          69.05          65.26         0.9134          9.705         -126.5          39.78          108.7          115.2          73.45
  0.008371              -13.02          5.095          69.04          65.26         0.9076          9.701         -126.5          39.79          108.6          115.2          73.43
  0.009132              -13.03          5.095          69.03          65.25         0.9014          9.696         -126.4           39.8          108.6          115.1          73.41
  0.009893              -13.04          5.095          69.01          65.24         0.8947           9.69         -126.4          39.81          108.6          115.1          73.39
   0.01065              -13.05          5.095           69.0          65.23         0.8874          9.685         -126.4          39.81          108.5          115.0          73.37
   0.01141              -13.06          5.095          68.99          65.22         0.8795          9.678         -126.4          39.82          108.5          115.0          73.35
   0.01218              -13.08          5.095          68.97          65.21          0.871          9.672         -126.4          39.83          108.4          115.0          73.32
   0.01294              -13.09          5.095          68.96           65.2         0.8616          9.664         -126.4          39.84          108.3          114.9          73.29
    0.0137               -13.1          5.094          68.94          65.19         0.8514          9.656         -126.3          39.86          108.3          114.9          73.26
   0.01446              -13.12          5.094          68.92          65.17         0.8403          9.647         -126.3          39.87          108.2          114.8          73.23
   0.01522              -13.14          5.094           68.9          65.16         0.8281          9.637         -126.3          39.88          108.1          114.7          73.19
   0.01598              -13.16          5.094          68.87          65.14         0.8146          9.627         -126.3           39.9          108.1          114.7          73.15
   0.01674              -13.18          5.094          68.85          65.12         0.7997          9.615         -126.2          39.92          108.0          114.6          73.11
    0.0175               -13.2          5.094          68.82           65.1         0.7832          9.602         -126.2          39.94          107.9          114.5          73.06
   0.01826              -13.23          5.094          68.78          65.08         0.7649          9.587         -126.2          39.96          107.7          114.4           73.0
   0.01902              -13.26          5.094          68.75          65.05         0.7444          9.571         -126.1          39.98          107.6          114.3          72.94
   0.01979              -13.29          5.094          68.71          65.02         0.7215          9.553         -126.1          40.01          107.5          114.2          72.87
   0.02055              -13.33          5.094          68.66          64.99         0.6957          9.532         -126.0          40.04          107.3          114.0           72.8
   0.02131              -13.37          5.094          68.61          64.95         0.6666          9.509         -126.0          40.07          107.1          113.9          72.71
   0.02207              -13.41          5.094          68.55          64.91         0.6335          9.483         -125.9          40.11          106.9          113.7          72.61
   0.02283              -13.47          5.093          68.49          64.86         0.5957          9.453         -125.8          40.15          106.7          113.5           72.5
   0.02359              -13.53          5.093          68.41          64.81         0.5524          9.418         -125.8          40.21          106.4          113.3          72.37
   0.02435               -13.6          5.093          68.32          64.74         0.5024          9.378         -125.7          40.26          106.1          113.0          72.22
   0.02511              -13.68          5.093          68.22          64.67         0.4443          9.332         -125.6          40.33          105.8          112.7          72.05
   0.02587              -13.78          5.092           68.1          64.58         0.3763          9.278         -125.4          40.41          105.3          112.3          71.85
   0.02663              -13.89          5.092          67.95          64.48         0.2961          9.214         -125.3           40.5          104.8          111.9          71.61
   0.02739              -14.03          5.092          67.79          64.36         0.2008          9.138         -125.1          40.62          104.2          111.4          71.32
   0.02816              -14.19          5.091          67.58          64.22         0.0866          9.047         -124.9          40.75          103.5          110.8          70.98
   0.02892              -14.39          5.091          67.34          64.04       -0.05156          8.937         -124.6          40.91          102.7          110.0          70.57
   0.02968              -14.63           5.09          67.04          63.83        -0.2203          8.803         -124.3          41.11          101.6          109.1          70.07
   0.03044              -14.93          5.089          66.67          63.56        -0.4287          8.637         -123.9          41.35          100.3          108.0          69.45
    0.0312               -15.3          5.088          66.21          63.24        -0.6884          8.431         -123.3          41.65          98.73          106.6          68.67
   0.03196              -15.76          5.086          65.63          62.82         -1.016           8.17         -122.7          42.04           96.7          104.9           67.7
   0.03272              -16.36          5.084          64.89          62.29         -1.432          7.839         -121.9          42.52          94.12          102.6          66.46
   0.03348              -17.11          5.082          63.95          61.62         -1.964          7.416         -120.9          43.14          90.81          99.77          64.88
   0.03424              -18.09          5.079          62.74          60.76         -2.647          6.872         -119.5          43.94          86.57          96.11          62.84
     0.035              -19.33          5.075          61.19          59.65          -3.52          6.178         -117.8          44.96          81.16          91.43          60.24
   0.03577              -20.89           5.07          59.25          58.26         -4.618          5.304         -115.7          46.24          74.35          85.55          56.97
   0.03653               -22.8          5.065          56.88          56.57         -5.955           4.24         -113.1          47.81          66.05          78.39          52.99
   0.03729              -25.01          5.058          54.13          54.61         -7.505          3.007         -110.1          49.62          56.43          70.08          48.37
   0.03805               -27.4           5.05          51.15          52.48         -9.183          1.671         -106.8          51.58          46.01          61.09          43.37
   0.03881              -29.79          5.043          48.18          50.36         -10.86         0.3354         -103.6          53.54           35.6           52.1          38.37
   0.03957              -31.99          5.036          45.43          48.39         -12.41         -0.898         -100.5          55.35          25.98          43.79          33.75
   0.04033               -33.9           5.03          43.06           46.7         -13.75         -1.962         -97.94          56.91          17.68          36.63          29.77
   0.04109              -35.46          5.025          41.12          45.31         -14.85         -2.835          -95.8          58.19          10.87          30.75           26.5
   0.04185              -36.71          5.022          39.57          44.21         -15.72          -3.53         -94.11          59.21          5.455          26.07           23.9
   0.04261              -37.68          5.019          38.36          43.34          -16.4         -4.074         -92.78          60.01          1.215          22.41          21.87
   0.04338              -38.44          5.016          37.42          42.67         -16.94         -4.497         -91.74          60.63         -2.089          19.56          20.28
   0.04414              -39.03          5.014          36.68          42.14         -17.35         -4.828         -90.93          61.12          -4.67          17.33          19.04
    0.0449               -39.5          5.013           36.1          41.73         -17.68         -5.089          -90.3           61.5         -6.701          15.58          18.07
